<svg width="104" height="104" viewBox="0 0 104 104" fill="none" xmlns="http://www.w3.org/2000/svg">
<path fill-rule="evenodd" clip-rule="evenodd" d="M100.139 99.4323C100.53 99.0417 100.53 98.4086 100.139 98.018L54.3374 52.2161L100.139 6.41422C100.53 6.02369 100.53 5.39053 100.139 5L99.4323 4.2929C99.0417 3.90237 98.4086 3.90237 98.018 4.2929L52.2161 50.0948L6.41422 4.29289C6.02371 3.90237 5.39053 3.90237 5.00003 4.29289L4.29288 5C3.90237 5.39052 3.90237 6.02369 4.29288 6.41421L50.0948 52.2161L4.29288 98.018C3.90237 98.4086 3.90237 99.0417 4.29288 99.4323L5.00003 100.139C5.39053 100.53 6.02371 100.53 6.41422 100.139L52.2161 54.3374L98.0181 100.139C98.4086 100.53 99.0418 100.53 99.4323 100.139L100.139 99.4323Z" fill="#222222"/>
<path fill-rule="evenodd" clip-rule="evenodd" d="M90.4951 86.9595C98.886 77.7255 104 65.4599 104 52C104 38.6064 98.9363 26.3955 90.6189 17.1773L69.8758 37.9204C73.3675 41.9048 75.4839 47.1246 75.4839 52.8387C75.4839 58.1913 73.6268 63.1102 70.5218 66.9862L90.4951 86.9595ZM86.9595 90.495L66.9862 70.5217C63.1103 73.6268 58.1914 75.4839 52.8387 75.4839C47.1246 75.4839 41.9049 73.3675 37.9205 69.8758L17.1773 90.619C26.3955 98.9363 38.6064 104 52 104C65.46 104 77.7255 98.886 86.9595 90.495ZM13.6293 87.0959C5.16455 77.8464 0 65.5263 0 52C0 38.54 5.114 26.2745 13.505 17.0404L35.1557 38.6912C32.0507 42.5672 30.1936 47.4861 30.1936 52.8387C30.1936 57.8284 31.8074 62.4412 34.5416 66.1836L13.6293 87.0959ZM66.1837 34.5415C62.4413 31.8074 57.8285 30.1935 52.8387 30.1935C47.4861 30.1935 42.5672 32.0506 38.6913 35.1557L17.0405 13.5049C26.2746 5.11397 38.5401 0 52 0C65.5263 0 77.8464 5.16454 87.0959 13.6293L66.1837 34.5415Z" fill="#222222"/>
</svg>
