<svg width="26" height="26" viewBox="0 0 26 26" fill="none" xmlns="http://www.w3.org/2000/svg">
<path fill-rule="evenodd" clip-rule="evenodd" d="M22 0H20V4L16 4V6H20V10H22V6H26V4L22 4V0Z" fill="#FA683C"/>
<path fill-rule="evenodd" clip-rule="evenodd" d="M12.5 1C14.8808 1 17.1061 1.66558 19 2.82081V3H15V7H19V11H23V7H23.1792C24.3344 8.89393 25 11.1192 25 13.5C25 20.4036 19.4036 26 12.5 26C5.59644 26 0 20.4036 0 13.5C0 6.59644 5.59644 1 12.5 1ZM12.5 19C15.5376 19 18 16.5376 18 13.5C18 10.4624 15.5376 8 12.5 8C9.46243 8 7 10.4624 7 13.5C7 16.5376 9.46243 19 12.5 19Z" fill="#FDE9D3"/>
<circle cx="12.5" cy="13.5" r="0.5" fill="#FDE9D3"/>
</svg>
