<svg width="26" height="26" viewBox="0 0 27 27" version="1.1" xmlns="http://www.w3.org/2000/svg" xmlns:xlink="http://www.w3.org/1999/xlink" xml:space="preserve" xmlns:serif="http://www.serif.com/" style="fill-rule:evenodd;clip-rule:evenodd;stroke-linejoin:round;stroke-miterlimit:2;">
    <g transform="matrix(1,0,0,1,0,-2)">
            <path d="M17.666,5.114L15,9.732L21.928,13.732L23.625,10.794C24.504,12.505 25,14.444 25,16.5C25,23.404 19.404,29 12.5,29C5.596,29 0,23.404 0,16.5C0,9.596 5.596,4 12.5,4C14.342,4 16.092,4.399 17.666,5.114ZM18,16.5C18,19.538 15.538,22 12.5,22C9.462,22 7,19.538 7,16.5C7,13.463 9.462,11 12.5,11C15.538,11 18,13.463 18,16.5Z" style="fill:rgb(251,209,161);"/>
            <circle cx="12.5" cy="16.5" r="0.5" fill="#fde9d3"/>
            <path d="M17.464,7.597L16.464,9.329L19.928,11.329L21.66,12.329L21.66,12.329L22.66,10.597L22.66,10.597L26.477,3.985L24.745,2.985L20.928,9.597L17.464,7.597Z" style="fill:rgb(108,167,153);"/>
    </g>
</svg>