<svg cache-id="4afb70c67f5c4c1cba4e38cd309e5a1c" id="euCBtDnYNqV1"
    xmlns="http://www.w3.org/2000/svg"
    xmlns:xlink="http://www.w3.org/1999/xlink" viewBox="0 0 138 172" shape-rendering="geometricPrecision" text-rendering="geometricPrecision">
    <style><![CDATA[#euCBtDnYNqV8_tr {animation: euCBtDnYNqV8_tr__tr 600ms linear infinite normal forwards}@keyframes euCBtDnYNqV8_tr__tr { 0% {transform: translate(69.073867px,68.656836px) rotate(0deg)} 100% {transform: translate(69.073867px,68.656836px) rotate(360deg)}}]]></style>
    <g id="euCBtDnYNqV8_tr" transform="translate(69.073867,68.656836) rotate(0)">
        <g id="euCBtDnYNqV8" transform="translate(-69.073867,-68.656835)">
            <path id="euCBtDnYNqV9" d="M69.0737,132.027C104.072,132.027,132.444,103.655,132.444,68.6567C132.444,33.6584,104.072,5.28668,69.0737,5.28668C34.0754,5.28668,5.70373,33.6584,5.70373,68.6567C5.70373,103.655,34.0754,132.027,69.0737,132.027Z" fill="rgb(251,209,161)" stroke="none" stroke-width="1"/>
            <circle id="euCBtDnYNqV10" r="58.4954" transform="matrix(1 0 0 1 69.0737 68.6567)" fill="rgb(251,71,42)" stroke="none" stroke-width="1"/>
            <path id="euCBtDnYNqV11" d="M127.55,70.1654C126.75,101.753,100.854,127.152,69.0737,127.152C36.7893,127.152,10.5783,100.941,10.5783,68.6567L127.569,68.6567L127.55,70.1654Z" clip-rule="evenodd" fill="rgb(51,51,51)" fill-rule="evenodd" stroke="none" stroke-width="1"/>
            <path id="euCBtDnYNqV12" d="M110.508,68.6567C110.508,57.6676,106.143,47.1287,98.3722,39.3582C90.6017,31.5878,80.0628,27.2224,69.0737,27.2224C58.0847,27.2224,47.5457,31.5878,39.7753,39.3582C32.0049,47.1287,27.6395,57.6676,27.6395,68.6567L69.0737,68.6567L110.508,68.6567Z" fill="rgb(250,104,60)" stroke="none" stroke-width="1"/>
            <path id="euCBtDnYNqV13" d="M69.0737,93.0298C82.5346,93.0298,93.4468,82.1176,93.4468,68.6567C93.4468,55.1958,82.5346,44.2836,69.0737,44.2836C55.6129,44.2836,44.7007,55.1958,44.7007,68.6567C44.7007,82.1176,55.6129,93.0298,69.0737,93.0298Z" fill="rgb(253,159,89)" stroke="none" stroke-width="1"/>
            <path id="euCBtDnYNqV14" d="M69.0737,70.361C70.015,70.361,70.7781,69.598,70.7781,68.6567C70.7781,67.7154,70.015,66.9523,69.0737,66.9523C68.1325,66.9523,67.3694,67.7154,67.3694,68.6567C67.3694,69.5979,68.1325,70.361,69.0737,70.361Z" fill="rgb(51,51,51)" stroke="none" stroke-width="1"/>
        </g>
    </g>
    <path id="euCBtDnYNqV15" d="M69.7086,113.039C68.2927,113.039,67.1431,111.891,67.1431,110.473C67.1431,109.058,68.2927,107.91,69.7086,107.91L129.77,107.91C131.186,107.91,132.336,109.058,132.336,110.473C132.336,111.891,131.186,113.039,129.77,113.039L69.7086,113.039Z" clip-rule="evenodd" fill="rgb(108,167,153)" fill-rule="evenodd" stroke="none" stroke-width="1"/>
    <path id="euCBtDnYNqV16" d="M48.8451,105.382C47.5223,104.877,46.8578,103.394,47.3636,102.069C47.8681,100.747,49.3518,100.085,50.6746,100.59L70.2877,108.077C71.6105,108.582,72.275,110.065,71.7704,111.386C71.2646,112.711,69.781,113.374,68.4582,112.869L48.8451,105.382Z" clip-rule="evenodd" fill="rgb(108,167,153)" fill-rule="evenodd" stroke="none" stroke-width="1"/>
    <path id="euCBtDnYNqV17" d="M44.3356,104.206C42.628,103.554,41.7703,101.64,42.4232,99.9296C43.0745,98.2234,44.9896,97.3677,46.6972,98.0196L50.2716,99.3841C51.9792,100.036,52.8368,101.95,52.1855,103.656C51.5326,105.367,49.6175,106.222,47.9099,105.57L44.3356,104.206Z" clip-rule="evenodd" fill="rgb(108,167,153)" fill-rule="evenodd" stroke="none" stroke-width="1"/>
</svg>