<svg width="18" height="18" viewBox="0 0 18 18" fill="none" xmlns="http://www.w3.org/2000/svg">
<path fill-rule="evenodd" clip-rule="evenodd" d="M9 18C13.9706 18 18 13.9706 18 9C18 4.02943 13.9706 0 9 0C4.02942 0 0 4.02943 0 9C0 13.9706 4.02942 18 9 18ZM4.29022 5.69123C3.90332 5.30434 3.90332 4.67706 4.29022 4.29017C4.67706 3.90327 5.30438 3.90327 5.69128 4.29017L9 7.59892L12.3088 4.29018C12.6956 3.90328 13.3229 3.90328 13.7098 4.29018C14.0967 4.67707 14.0967 5.30434 13.7098 5.69124L10.4011 8.99998L13.7098 12.3087C14.0967 12.6956 14.0967 13.3229 13.7098 13.7098C13.3229 14.0967 12.6957 14.0967 12.3088 13.7098L9 10.401L5.69122 13.7098C5.30432 14.0967 4.67706 14.0967 4.29016 13.7098C3.90326 13.3229 3.90326 12.6956 4.29016 12.3088L7.59894 8.99998L4.29022 5.69123Z" fill="#FBD2A2" fill-opacity="0.5"/>
</svg>
