<svg cache-id="4afb70c67f5c4c1cba4e38cd309e5a1c" id="euCBtDnYNqV1"
    xmlns="http://www.w3.org/2000/svg"
    xmlns:xlink="http://www.w3.org/1999/xlink" viewBox="0 0 138 172" shape-rendering="geometricPrecision" text-rendering="geometricPrecision">
    <style><![CDATA[#euCBtDnYNqV8_tr {animation: euCBtDnYNqV8_tr__tr 600ms linear infinite normal forwards}@keyframes euCBtDnYNqV8_tr__tr { 0% {transform: translate(69.073867px,68.656836px) rotate(0deg)} 100% {transform: translate(69.073867px,68.656836px) rotate(360deg)}}]]></style>
    <!--  <path id="euCBtDnYNqV2" d="M137.605,167.179C137.605,169.84,135.445,172,132.784,172L5.01438,172C2.35297,172,0.193459,169.84,0.193459,167.179L0.193459,68.9701C0.193459,31.0506,30.9805,0.26358,68.8981,0.26358C106.819,0.26358,137.605,31.0506,137.605,68.9701L137.605,167.179Z" clip-rule="evenodd" fill="rgb(51,51,51)" fill-rule="evenodd" stroke="none" stroke-width="1"/>
    <path id="euCBtDnYNqV3" d="M19.8144,155.868C23.9444,155.906,27.0894,155.148,29.2112,153.556C31.3331,152.003,32.3941,149.54,32.3941,146.168C32.3941,144.463,32.0909,143.023,31.4847,141.81C30.8405,140.636,29.9312,139.651,28.7187,138.893C27.5062,138.135,25.9905,137.604,24.1718,137.226C22.353,136.885,20.2312,136.733,17.844,136.733L6.6663,136.733C6.36317,136.733,6.09794,136.847,5.8706,137.074C5.64325,137.301,5.52958,137.567,5.52958,137.87L5.52958,165.303C5.52958,165.606,5.64325,165.871,5.90849,166.098C6.13583,166.326,6.40106,166.439,6.70419,166.439L14.737,166.439C15.078,166.439,15.3433,166.326,15.5706,166.098C15.7979,165.871,15.9116,165.606,15.9116,165.303L15.9116,155.83L19.8144,155.868ZM18.0714,143.515C19.4355,143.402,20.4964,143.629,21.2542,144.122C22.012,144.652,22.3909,145.41,22.3909,146.357C22.3909,148.328,20.8753,149.237,17.8062,149.123L15.8737,149.047L15.8737,143.667L18.0714,143.515Z" fill="rgb(251,209,161)" stroke="none" stroke-width="1"/>
    <path id="euCBtDnYNqV4" d="M55.3912,166.439C55.6943,166.439,55.9596,166.326,56.1869,166.098C56.4143,165.871,56.5279,165.606,56.5279,165.302L56.5279,151.927C56.5279,149.237,55.9217,147.153,54.7092,145.713C53.4588,144.311,51.6021,143.591,49.1014,143.591C47.9268,143.591,46.8279,143.743,45.767,144.046C44.706,144.387,43.7209,144.842,42.7736,145.41L42.7736,137.87C42.7736,137.567,42.6599,137.301,42.4326,137.074C42.2053,136.847,41.94,136.733,41.6369,136.733L35.1576,136.733C34.8545,136.733,34.5892,136.847,34.3998,137.074C34.1724,137.301,34.0588,137.567,34.0588,137.87L34.0588,165.302C34.0588,165.606,34.1724,165.871,34.3998,166.098C34.5892,166.326,34.8545,166.439,35.1576,166.439L41.6369,166.439C41.94,166.439,42.2053,166.326,42.4326,166.098C42.6599,165.871,42.7736,165.606,42.7736,165.302L42.7736,151.927C42.9252,151.851,43.1146,151.776,43.3041,151.662C43.4935,151.548,43.7588,151.435,44.024,151.321L43.9861,151.321C44.8197,150.904,45.6533,150.715,46.4869,150.715C46.9037,150.715,47.2447,150.942,47.4721,151.397C47.6615,151.889,47.7752,152.495,47.7752,153.215L47.7752,165.302C47.7752,165.606,47.8889,165.871,48.1162,166.098C48.3435,166.326,48.6088,166.439,48.9119,166.439L55.3912,166.439Z" fill="rgb(251,209,161)" stroke="none" stroke-width="1"/>
    <path id="euCBtDnYNqV5" d="M82.3336,155.533C82.3336,152.009,81.2348,149.205,79.0371,147.159C76.8015,145.151,73.884,144.128,70.2465,144.128C66.6469,144.128,63.7293,145.151,61.4937,147.159C59.2961,149.205,58.1972,152.009,58.1972,155.533C58.1972,159.057,59.2961,161.823,61.4937,163.869C63.6535,165.877,66.5711,166.9,70.2465,166.9C73.9219,166.9,76.8773,165.877,79.0371,163.869C81.2348,161.823,82.3336,159.057,82.3336,155.533ZM74.3008,155.533C74.3008,156.935,73.9597,158.034,73.2398,158.829C72.5199,159.625,71.5347,160.042,70.2465,160.042C68.9961,160.042,68.0109,159.625,67.291,158.829C66.5711,158.034,66.2301,156.935,66.2301,155.533C66.2301,154.131,66.5711,152.994,67.291,152.199C68.0109,151.403,68.9961,151.024,70.2465,151.024C71.5347,151.024,72.5199,151.403,73.2398,152.199C73.9597,152.994,74.3008,154.131,74.3008,155.533Z" fill="rgb(251,209,161)" stroke="none" stroke-width="1"/>
    <path id="euCBtDnYNqV6" d="M105.338,166.45C105.641,166.45,105.907,166.336,106.134,166.109C106.361,165.919,106.475,165.654,106.475,165.313L106.475,152.316C106.475,149.664,105.869,147.656,104.656,146.254C103.406,144.852,101.549,144.17,99.0484,144.17C97.6465,144.17,96.3203,144.397,95.0699,144.814C93.7816,145.231,92.607,145.837,91.5461,146.595L90.6746,145.155C90.5609,145.041,90.4094,144.928,90.2199,144.814C90.0305,144.7,89.841,144.662,89.7273,144.662L85.1047,144.662C84.8015,144.662,84.5363,144.776,84.3468,144.966C84.1195,145.193,84.0058,145.458,84.0058,145.761L84.0058,165.313C84.0058,165.654,84.1195,165.919,84.3468,166.109C84.5363,166.336,84.8015,166.45,85.1047,166.45L91.584,166.45C91.8871,166.45,92.1523,166.336,92.3797,166.109C92.607,165.919,92.7207,165.654,92.7207,165.313L92.7207,152.316C92.8723,152.203,93.0617,152.127,93.2512,152.013C93.4406,151.937,93.7058,151.824,93.9711,151.71L93.9332,151.71C94.35,151.521,94.7668,151.369,95.1836,151.255C95.6004,151.142,96.0172,151.104,96.434,151.104C96.8508,151.104,97.1918,151.331,97.4191,151.786C97.6086,152.241,97.7223,152.847,97.7223,153.567L97.7223,165.313C97.7223,165.654,97.8359,165.919,98.0633,166.109C98.2906,166.336,98.5559,166.45,98.859,166.45L105.338,166.45Z" fill="rgb(251,209,161)" stroke="none" stroke-width="1"/>
    <path id="euCBtDnYNqV7" d="M132.27,155.533C132.27,152.009,131.171,149.205,128.974,147.159C126.738,145.151,123.821,144.128,120.183,144.128C116.583,144.128,113.666,145.151,111.43,147.159C109.233,149.205,108.134,152.009,108.134,155.533C108.134,159.057,109.233,161.823,111.43,163.869C113.59,165.877,116.508,166.9,120.183,166.9C123.858,166.9,126.814,165.877,128.974,163.869C131.171,161.823,132.27,159.057,132.27,155.533ZM124.237,155.533C124.237,156.935,123.896,158.034,123.176,158.829C122.456,159.625,121.471,160.042,120.183,160.042C118.933,160.042,117.947,159.625,117.228,158.829C116.508,158.034,116.167,156.935,116.167,155.533C116.167,154.131,116.508,152.994,117.228,152.199C117.947,151.403,118.933,151.024,120.183,151.024C121.471,151.024,122.456,151.403,123.176,152.199C123.896,152.994,124.237,154.131,124.237,155.533Z" fill="rgb(251,209,161)" stroke="none" stroke-width="1"/>
     -->
    <g id="euCBtDnYNqV8_tr" transform="translate(69.073867,68.656836) rotate(0)">
        <g id="euCBtDnYNqV8" transform="translate(-69.073867,-68.656835)">
            <path id="euCBtDnYNqV9" d="M69.0737,132.027C104.072,132.027,132.444,103.655,132.444,68.6567C132.444,33.6584,104.072,5.28668,69.0737,5.28668C34.0754,5.28668,5.70373,33.6584,5.70373,68.6567C5.70373,103.655,34.0754,132.027,69.0737,132.027Z" fill="rgb(251,209,161)" stroke="none" stroke-width="1"/>
            <circle id="euCBtDnYNqV10" r="58.4954" transform="matrix(1 0 0 1 69.0737 68.6567)" fill="rgb(251,71,42)" stroke="none" stroke-width="1"/>
            <path id="euCBtDnYNqV11" d="M127.55,70.1654C126.75,101.753,100.854,127.152,69.0737,127.152C36.7893,127.152,10.5783,100.941,10.5783,68.6567L127.569,68.6567L127.55,70.1654Z" clip-rule="evenodd" fill="rgb(51,51,51)" fill-rule="evenodd" stroke="none" stroke-width="1"/>
            <path id="euCBtDnYNqV12" d="M110.508,68.6567C110.508,57.6676,106.143,47.1287,98.3722,39.3582C90.6017,31.5878,80.0628,27.2224,69.0737,27.2224C58.0847,27.2224,47.5457,31.5878,39.7753,39.3582C32.0049,47.1287,27.6395,57.6676,27.6395,68.6567L69.0737,68.6567L110.508,68.6567Z" fill="rgb(250,104,60)" stroke="none" stroke-width="1"/>
            <path id="euCBtDnYNqV13" d="M69.0737,93.0298C82.5346,93.0298,93.4468,82.1176,93.4468,68.6567C93.4468,55.1958,82.5346,44.2836,69.0737,44.2836C55.6129,44.2836,44.7007,55.1958,44.7007,68.6567C44.7007,82.1176,55.6129,93.0298,69.0737,93.0298Z" fill="rgb(253,159,89)" stroke="none" stroke-width="1"/>
            <path id="euCBtDnYNqV14" d="M69.0737,70.361C70.015,70.361,70.7781,69.598,70.7781,68.6567C70.7781,67.7154,70.015,66.9523,69.0737,66.9523C68.1325,66.9523,67.3694,67.7154,67.3694,68.6567C67.3694,69.5979,68.1325,70.361,69.0737,70.361Z" fill="rgb(51,51,51)" stroke="none" stroke-width="1"/>
        </g>
    </g>
    <path id="euCBtDnYNqV15" d="M69.7086,113.039C68.2927,113.039,67.1431,111.891,67.1431,110.473C67.1431,109.058,68.2927,107.91,69.7086,107.91L129.77,107.91C131.186,107.91,132.336,109.058,132.336,110.473C132.336,111.891,131.186,113.039,129.77,113.039L69.7086,113.039Z" clip-rule="evenodd" fill="rgb(108,167,153)" fill-rule="evenodd" stroke="none" stroke-width="1"/>
    <path id="euCBtDnYNqV16" d="M48.8451,105.382C47.5223,104.877,46.8578,103.394,47.3636,102.069C47.8681,100.747,49.3518,100.085,50.6746,100.59L70.2877,108.077C71.6105,108.582,72.275,110.065,71.7704,111.386C71.2646,112.711,69.781,113.374,68.4582,112.869L48.8451,105.382Z" clip-rule="evenodd" fill="rgb(108,167,153)" fill-rule="evenodd" stroke="none" stroke-width="1"/>
    <path id="euCBtDnYNqV17" d="M44.3356,104.206C42.628,103.554,41.7703,101.64,42.4232,99.9296C43.0745,98.2234,44.9896,97.3677,46.6972,98.0196L50.2716,99.3841C51.9792,100.036,52.8368,101.95,52.1855,103.656C51.5326,105.367,49.6175,106.222,47.9099,105.57L44.3356,104.206Z" clip-rule="evenodd" fill="rgb(108,167,153)" fill-rule="evenodd" stroke="none" stroke-width="1"/>
</svg>
