<svg width="33" height="33" viewBox="0 0 33 33" fill="none"
    xmlns="http://www.w3.org/2000/svg">
    <path d="M16.641 32.2867C25.4776 32.2867 32.641 25.1232 32.641 16.2867C32.641 7.45013 25.4776 0.286682 16.641 0.286682C7.80448 0.286682 0.641037 7.45013 0.641037 16.2867C0.641038 25.1232 7.80448 32.2867 16.641 32.2867Z" fill="#FBD1A1"/>
    <circle cx="16.641" cy="16.2867" r="14.7692" fill="#FB472A"/>
    <path fill-rule="evenodd" clip-rule="evenodd" d="M31.4054 16.6676C31.2033 24.643 24.6651 31.0559 16.641 31.0559C8.48969 31.0559 1.87181 24.4381 1.87181 16.2867L31.4103 16.2867L31.4054 16.6676Z" fill="#333333"/>
    <path d="M27.1026 16.2867C27.1026 13.5121 26.0004 10.8512 24.0385 8.88925C22.0765 6.92733 19.4156 5.82513 16.641 5.82513C13.8665 5.82513 11.2055 6.92733 9.24362 8.88925C7.2817 10.8512 6.1795 13.5121 6.1795 16.2867L16.641 16.2867L27.1026 16.2867Z" fill="#FA683C"/>
    <path d="M16.641 22.4405C20.0397 22.4405 22.7949 19.6854 22.7949 16.2867C22.7949 12.888 20.0397 10.1328 16.641 10.1328C13.2424 10.1328 10.4872 12.888 10.4872 16.2867C10.4872 19.6854 13.2424 22.4405 16.641 22.4405Z" fill="#FD9F59"/>
    <path d="M16.641 16.717C16.8787 16.717 17.0714 16.5243 17.0714 16.2867C17.0714 16.049 16.8787 15.8564 16.641 15.8564C16.4034 15.8564 16.2107 16.049 16.2107 16.2867C16.2107 16.5243 16.4034 16.717 16.641 16.717Z" fill="#333333"/>
    <path fill-rule="evenodd" clip-rule="evenodd" d="M16.8013 27.4927C16.4438 27.4927 16.1536 27.2027 16.1536 26.8447C16.1536 26.4875 16.4438 26.1975 16.8013 26.1975H31.966C32.3235 26.1975 32.6138 26.4875 32.6138 26.8447C32.6138 27.2027 32.3235 27.4927 31.966 27.4927H16.8013Z" fill="#6CA799"/>
    <path fill-rule="evenodd" clip-rule="evenodd" d="M11.5336 25.5592C11.1996 25.4317 11.0318 25.0573 11.1595 24.7228C11.2869 24.3891 11.6615 24.2217 11.9955 24.3492L16.9475 26.2397C17.2815 26.3672 17.4493 26.7416 17.3219 27.0753C17.1942 27.4098 16.8196 27.5772 16.4856 27.4497L11.5336 25.5592Z" fill="#6CA799"/>
    <path fill-rule="evenodd" clip-rule="evenodd" d="M10.395 25.2623C9.96388 25.0977 9.74733 24.6144 9.91217 24.1826C10.0766 23.7518 10.5602 23.5358 10.9913 23.7004L11.8938 24.0449C12.3249 24.2095 12.5415 24.6928 12.377 25.1236C12.2122 25.5554 11.7286 25.7714 11.2975 25.6068L10.395 25.2623Z" fill="#6CA799"/>
</svg>