<svg width="196" height="214" viewBox="0 0 196 214" fill="none" xmlns="http://www.w3.org/2000/svg">
<path fill-rule="evenodd" clip-rule="evenodd" d="M195.847 73.4822H0.155212L24.3825 213.262H171.619L195.847 73.4822ZM165.567 0.333H30.4324L32.6691 18.9685H163.337L165.567 0.333ZM175.11 24.5603H20.8856H20.8837L23.0507 40.4031H172.946L175.11 24.5603ZM190.487 46.6941H5.51145H5.50897L8.71641 66.2602H187.279L190.487 46.6941ZM98 195C126.719 195 150 171.719 150 143C150 114.281 126.719 91 98 91C69.2812 91 46 114.281 46 143C46 171.719 69.2812 195 98 195ZM98.8388 166.484C111.345 166.484 121.484 156.345 121.484 143.839C121.484 131.332 111.345 121.194 98.8388 121.194C86.3322 121.194 76.1936 131.332 76.1936 143.839C76.1936 156.345 86.3322 166.484 98.8388 166.484ZM98.3825 145.033C99.2942 145.033 100.033 144.294 100.033 143.383C100.033 142.471 99.2942 141.732 98.3825 141.732C97.4708 141.732 96.7317 142.471 96.7317 143.383C96.7317 144.294 97.4708 145.033 98.3825 145.033Z" fill="#222222"/>
</svg>